#N canvas 797 181 761 486 10;
#X obj 147 163 balance~;
#X floatatom 202 134 5 0 0 0 - - -, f 5;
#X obj 96 124 sig~ 1;
#X obj 146 124 sig~ 0.2;
#X obj 147 185 env~;
#X obj 147 207 dbtorms;
#X floatatom 147 229 5 0 0 0 - - -, f 5;
#X obj 364 109 bng 15 250 50 0 empty empty empty 17 7 0 10 -262144
-1 -1;
#X floatatom 364 212 5 0 0 0 - - -, f 5;
#X obj 364 170 counter 0 5;
#X msg 427 132 -1;
#X obj 427 211 print Wrap;
#X connect 0 0 4 0;
#X connect 1 0 0 2;
#X connect 2 0 0 0;
#X connect 3 0 0 1;
#X connect 4 0 5 0;
#X connect 5 0 6 0;
#X connect 7 0 9 0;
#X connect 9 0 8 0;
#X connect 9 1 11 0;
#X connect 10 0 9 1;
